<svg xmlns="http://www.w3.org/2000/svg" viewBox="0 0 1141.56 297.85"><defs><style>.cls-1{fill:#fff;}.cls-2{fill:#231f20;}</style></defs><g id="Layer_2" data-name="Layer 2"><path class="cls-1" d="M387,269.14a152.65,152.65,0,0,1,23-1.58c11.33,0,19.26,1.69,24.7,6,4.53,3.63,7,8.95,7,16,0,9.74-6.91,16.42-13.48,18.8v.34c5.33,2.16,8.27,7.25,10.2,14.28,2.38,8.61,4.76,18.58,6.23,21.53H427c-1.25-2.16-3.06-8.39-5.33-17.79-2-9.52-5.32-12.13-12.35-12.24h-5.21v30H387ZM404.11,302h6.8c8.61,0,13.71-4.31,13.71-11,0-7-4.76-10.54-12.69-10.65a42.65,42.65,0,0,0-7.82.57Z" transform="translate(-41.51 -225.05)"/><path class="cls-1" d="M523.64,306.19c0,25.61-16.88,39.54-37.39,39.54-22,0-36-16-36-38.86,0-23.68,15.07-40,37.51-40C510.84,266.88,523.64,283.87,523.64,306.19Zm-55.18.23c0,14.27,6.58,25.6,18.47,25.6,12.24,0,18.47-11.78,18.47-25.6,0-12.92-5.66-25.84-18.35-25.84C474.92,280.58,468.46,292.25,468.46,306.42Z" transform="translate(-41.51 -225.05)"/><path class="cls-1" d="M535,269.14c4.54-.9,13.71-1.58,22.32-1.58,10.54,0,17,1,22.55,4.3a16.62,16.62,0,0,1,9.18,15c0,6.79-4,13.14-12.58,16.31v.23c8.73,2.38,15.18,8.95,15.18,18.81a20.33,20.33,0,0,1-7.93,16.2c-5.55,4.42-14.84,6.91-30,6.91a134.91,134.91,0,0,1-18.7-1.13Zm17.11,29.23h5.67c9.06,0,13.93-3.74,13.93-9.4s-4.42-8.84-12.23-8.84a48.29,48.29,0,0,0-7.37.45Zm0,33.88a53.74,53.74,0,0,0,6.69.23c7.81,0,14.73-3.06,14.73-11,0-7.71-6.92-10.77-15.53-10.77h-5.89Z" transform="translate(-41.51 -225.05)"/><path class="cls-1" d="M673.31,306.19c0,25.61-16.88,39.54-37.38,39.54-22,0-36-16-36-38.86,0-23.68,15.07-40,37.5-40C660.51,266.88,673.31,283.87,673.31,306.19Zm-55.17.23c0,14.27,6.57,25.6,18.47,25.6,12.23,0,18.46-11.78,18.46-25.6,0-12.92-5.66-25.84-18.35-25.84C624.6,280.58,618.14,292.25,618.14,306.42Z" transform="translate(-41.51 -225.05)"/><path class="cls-1" d="M696.2,282.62H675.7v-14.5h58.69v14.5H713.54v61.87H696.2Z" transform="translate(-41.51 -225.05)"/><path class="cls-1" d="M760.9,268.12v76.37H743.56V268.12Z" transform="translate(-41.51 -225.05)"/><path class="cls-1" d="M831.94,342.33c-3.18,1.59-10.31,3.4-19.6,3.4-26.4,0-40-16.54-40-38.29,0-26.06,18.58-40.45,41.7-40.45,9,0,15.74,1.7,18.8,3.28L829.33,284a37.32,37.32,0,0,0-14.5-2.83c-13.71,0-24.36,8.27-24.36,25.27,0,15.29,9.06,24.92,24.47,24.92a43.16,43.16,0,0,0,14.39-2.49Z" transform="translate(-41.51 -225.05)"/><path class="cls-1" d="M843.83,326.7A44.09,44.09,0,0,0,863,331.46c7.93,0,12.13-3.29,12.13-8.27,0-4.76-3.63-7.48-12.81-10.77-12.69-4.42-21-11.44-21-22.54,0-13,10.88-22.89,28.89-22.89,8.61,0,15,1.7,19.49,3.74l-3.85,13.93a36.38,36.38,0,0,0-16-3.62c-7.47,0-11.1,3.4-11.1,7.36,0,4.87,4.31,7,14.16,10.77,13.48,5,19.83,12,19.83,22.77,0,12.8-9.86,23.79-30.82,23.79-8.72,0-17.33-2.38-21.64-4.76Z" transform="translate(-41.51 -225.05)"/><path class="cls-1" d="M983.42,342.33c-3.17,1.59-10.31,3.4-19.6,3.4-26.4,0-40-16.54-40-38.29,0-26.06,18.58-40.45,41.69-40.45,9,0,15.75,1.7,18.81,3.28L980.82,284a37.42,37.42,0,0,0-14.51-2.83c-13.71,0-24.36,8.27-24.36,25.27,0,15.29,9.07,24.92,24.48,24.92a43.16,43.16,0,0,0,14.39-2.49Z" transform="translate(-41.51 -225.05)"/><path class="cls-1" d="M994.75,268.12h17.34V330h30.36v14.51h-47.7Z" transform="translate(-41.51 -225.05)"/><path class="cls-1" d="M1066.36,268.12v44.19c0,13,5,19.6,13.82,19.6,9.07,0,14-6.23,14-19.6V268.12h17.22v43.06c0,23.56-11.89,34.55-31.83,34.55-19.26,0-30.59-10.42-30.59-34.78V268.12Z" transform="translate(-41.51 -225.05)"/><path class="cls-1" d="M1126.41,269.14c4.53-.9,13.71-1.58,22.32-1.58,10.54,0,17,1,22.55,4.3a16.64,16.64,0,0,1,9.18,15c0,6.79-4,13.14-12.58,16.31v.23c8.72,2.38,15.18,8.95,15.18,18.81a20.33,20.33,0,0,1-7.93,16.2c-5.55,4.42-14.84,6.91-30,6.91a134.79,134.79,0,0,1-18.7-1.13Zm17.11,29.23h5.66c9.07,0,13.94-3.74,13.94-9.4s-4.42-8.84-12.24-8.84a48.13,48.13,0,0,0-7.36.45Zm0,33.88a53.65,53.65,0,0,0,6.68.23c7.82,0,14.73-3.06,14.73-11,0-7.71-6.91-10.77-15.52-10.77h-5.89Z" transform="translate(-41.51 -225.05)"/><path class="cls-1" d="M390.63,381.53H380.37v-7.25h29.35v7.25H399.3v30.94h-8.67Z" transform="translate(-41.51 -225.05)"/><path class="cls-1" d="M414.31,374.79a76.28,76.28,0,0,1,11.5-.79c5.66,0,9.63.85,12.35,3a9.68,9.68,0,0,1,3.51,8,10.12,10.12,0,0,1-6.74,9.4v.17c2.66,1.08,4.14,3.63,5.1,7.14,1.19,4.31,2.38,9.29,3.12,10.77h-8.84c-.63-1.08-1.53-4.2-2.67-8.9s-2.66-6.06-6.17-6.12h-2.61v15h-8.55Zm8.55,16.43h3.4c4.31,0,6.86-2.15,6.86-5.49,0-3.52-2.38-5.27-6.35-5.33a22.14,22.14,0,0,0-3.91.28Z" transform="translate(-41.51 -225.05)"/><path class="cls-1" d="M456.57,374.28v38.19H447.9V374.28Z" transform="translate(-41.51 -225.05)"/><path class="cls-1" d="M464.05,374.79a69.12,69.12,0,0,1,11.16-.79c5.27,0,8.5.51,11.27,2.15a8.3,8.3,0,0,1,4.59,7.48c0,3.4-2,6.57-6.29,8.16v.11c4.37,1.19,7.6,4.48,7.6,9.41a10.19,10.19,0,0,1-4,8.1c-2.78,2.21-7.42,3.45-15,3.45a67.47,67.47,0,0,1-9.34-.56Zm8.55,14.62h2.83c4.54,0,7-1.87,7-4.7s-2.21-4.42-6.12-4.42a24.27,24.27,0,0,0-3.68.22Zm0,16.94a28,28,0,0,0,3.34.11c3.91,0,7.37-1.53,7.37-5.49s-3.46-5.39-7.76-5.39H472.6Z" transform="translate(-41.51 -225.05)"/><path class="cls-1" d="M506.93,374.28V389h14.22V374.28h8.62v38.19h-8.62v-16H506.93v16h-8.67V374.28Z" transform="translate(-41.51 -225.05)"/><path class="cls-1" d="M545.91,374.28v22.1c0,6.51,2.49,9.8,6.91,9.8s7-3.12,7-9.8v-22.1h8.61v21.53c0,11.79-6,17.28-15.92,17.28-9.63,0-15.3-5.21-15.3-17.39V374.28Z" transform="translate(-41.51 -225.05)"/><path class="cls-1" d="M617.46,402.69l-2.72,9.81h-9l11.67-38.19h11.33l11.84,38.19h-9.29l-3-9.81Zm9.69-6.45-2.38-8.11c-.68-2.26-1.36-5.1-1.93-7.36h-.11c-.57,2.26-1.14,5.15-1.76,7.36l-2.26,8.11Z" transform="translate(-41.51 -225.05)"/><path class="cls-1" d="M645.73,412.5V374.31h10.08l7.93,14A111.25,111.25,0,0,1,670,401.39h.17a141.27,141.27,0,0,1-.74-16v-11.1h7.93V412.5h-9.06l-8.16-14.73a140.75,140.75,0,0,1-6.63-13.49l-.17.06c.23,5,.34,10.42.34,16.65V412.5Z" transform="translate(-41.51 -225.05)"/><path class="cls-1" d="M704.87,374.31v22.1c0,6.51,2.49,9.8,6.91,9.8s7-3.12,7-9.8v-22.1h8.61v21.53c0,11.78-5.95,17.28-15.92,17.28-9.63,0-15.3-5.21-15.3-17.39V374.31Z" transform="translate(-41.51 -225.05)"/><path class="cls-1" d="M734.9,412.5V374.31H745l7.93,14a111.25,111.25,0,0,1,6.24,13.09h.17a141.27,141.27,0,0,1-.74-16v-11.1h7.93V412.5h-9.06l-8.16-14.73a140.75,140.75,0,0,1-6.63-13.49l-.17.06c.22,5,.34,10.42.34,16.65V412.5Z" transform="translate(-41.51 -225.05)"/><path class="cls-1" d="M782.65,374.31V412.5H774V374.31Z" transform="translate(-41.51 -225.05)"/><path class="cls-1" d="M799.14,412.5,786.9,374.31h9.46L801,390.46c1.3,4.53,2.49,8.89,3.4,13.65h.17c1-4.59,2.15-9.12,3.45-13.48l4.88-16.32h9.17L809.22,412.5Z" transform="translate(-41.51 -225.05)"/><path class="cls-1" d="M848.88,396.35h-14v9.06h15.69v7.09H826.16V374.31h23.57v7.08h-14.9v7.93h14Z" transform="translate(-41.51 -225.05)"/><path class="cls-1" d="M856.41,374.82a76.38,76.38,0,0,1,11.5-.79c5.67,0,9.63.85,12.35,3a9.68,9.68,0,0,1,3.52,8,10.13,10.13,0,0,1-6.75,9.4v.17c2.67,1.08,4.14,3.63,5.1,7.14,1.19,4.31,2.38,9.29,3.12,10.77h-8.84c-.62-1.08-1.53-4.2-2.66-8.9s-2.66-6.06-6.18-6.12H865v15h-8.56ZM865,391.25h3.4c4.3,0,6.85-2.15,6.85-5.5,0-3.51-2.38-5.27-6.34-5.32a22,22,0,0,0-3.91.28Z" transform="translate(-41.51 -225.05)"/><path class="cls-1" d="M890.29,403.6a22,22,0,0,0,9.57,2.38c4,0,6.07-1.64,6.07-4.14s-1.82-3.73-6.41-5.38c-6.34-2.21-10.48-5.72-10.48-11.27,0-6.52,5.44-11.45,14.45-11.45a23.44,23.44,0,0,1,9.74,1.87l-1.92,7a18.12,18.12,0,0,0-8-1.81c-3.74,0-5.55,1.7-5.55,3.68,0,2.44,2.15,3.51,7.08,5.38,6.74,2.5,9.91,6,9.91,11.39,0,6.4-4.92,11.9-15.41,11.9a24.89,24.89,0,0,1-10.82-2.38Z" transform="translate(-41.51 -225.05)"/><path class="cls-1" d="M929.27,374.31V412.5H920.6V374.31Z" transform="translate(-41.51 -225.05)"/><path class="cls-1" d="M944.11,381.56H933.85v-7.25H963.2v7.25H952.78V412.5h-8.67Z" transform="translate(-41.51 -225.05)"/><path class="cls-1" d="M977,412.5V396.86L965,374.31h9.86l3.91,9.18c1.19,2.77,2,4.81,2.95,7.31h.11c.85-2.38,1.76-4.59,2.89-7.31l3.85-9.18h9.69l-12.58,22.27V412.5Z" transform="translate(-41.51 -225.05)"/><path class="cls-1" d="M383.26,442.77a72.28,72.28,0,0,1,11.67-.79c5.33,0,9.13,1,11.68,3.06a11.18,11.18,0,0,1,4.07,8.84,12,12,0,0,1-3.51,9.06c-2.94,2.78-7.31,4.08-12.35,4.08-1.19,0-2.21-.11-3-.17v13.6h-8.56Zm8.56,17.4a18.56,18.56,0,0,0,2.89.17c4.59,0,7.42-2.32,7.42-6.18,0-3.57-2.38-5.67-6.86-5.67a18.94,18.94,0,0,0-3.45.29Z" transform="translate(-41.51 -225.05)"/><path class="cls-1" d="M424.79,442.26v22.1c0,6.52,2.49,9.8,6.91,9.8s7-3.11,7-9.8v-22.1h8.61v21.53c0,11.79-5.95,17.28-15.92,17.28-9.63,0-15.3-5.21-15.3-17.39V442.26Z" transform="translate(-41.51 -225.05)"/><path class="cls-1" d="M454.81,442.26h8.67V473.2h15.19v7.25H454.81Z" transform="translate(-41.51 -225.05)"/><path class="cls-1" d="M509.65,479.37a24.2,24.2,0,0,1-9.8,1.7c-13.2,0-20-8.27-20-19.15,0-13,9.29-20.22,20.85-20.22a22.82,22.82,0,0,1,9.41,1.64l-1.76,6.86a18.54,18.54,0,0,0-7.25-1.42c-6.86,0-12.18,4.14-12.18,12.63,0,7.65,4.53,12.47,12.24,12.47a21.56,21.56,0,0,0,7.19-1.25Z" transform="translate(-41.51 -225.05)"/><path class="cls-1" d="M524,442.26v14.68h14.23V442.26h8.61v38.19h-8.61v-16H524v16h-8.66V442.26Z" transform="translate(-41.51 -225.05)"/><path class="cls-1" d="M589.31,461.3c0,12.81-8.44,19.77-18.7,19.77-11,0-18-8-18-19.43,0-11.84,7.54-20,18.76-20C582.9,441.64,589.31,450.14,589.31,461.3Zm-27.6.11c0,7.14,3.29,12.81,9.24,12.81,6.12,0,9.24-5.89,9.24-12.81,0-6.45-2.84-12.92-9.18-12.92C564.94,448.49,561.71,454.33,561.71,461.41Z" transform="translate(-41.51 -225.05)"/><path class="cls-1" d="M600.69,480.45l-9-38.19h9.24l2.89,15.7c.85,4.59,1.64,9.52,2.26,13.37h.12c.56-4.14,1.53-8.73,2.49-13.43l3.23-15.64h9.18l3.06,16.09c.85,4.48,1.47,8.56,2,12.81h.11c.57-4.25,1.42-8.73,2.21-13.26l3.12-15.64h8.78l-9.86,38.19H621.2L618,464c-.73-3.8-1.36-7.42-1.81-11.78h-.11c-.68,4.3-1.31,7.93-2.21,11.78l-3.63,16.43Z" transform="translate(-41.51 -225.05)"/><path class="cls-1" d="M644.88,442.26h8.55v16.89h.17c.85-1.48,1.76-2.84,2.61-4.19l8.67-12.7h10.59l-12.63,16.26,13.31,21.93H666.07L656.72,464l-3.29,4v12.46h-8.55Z" transform="translate(-41.51 -225.05)"/><path class="cls-1" d="M719.15,479.37a24.2,24.2,0,0,1-9.8,1.7c-13.2,0-20-8.27-20-19.15,0-13,9.29-20.22,20.85-20.22,4.48,0,7.88.85,9.4,1.64l-1.75,6.86a18.58,18.58,0,0,0-7.25-1.42c-6.86,0-12.18,4.14-12.18,12.63,0,7.65,4.53,12.47,12.23,12.47a21.58,21.58,0,0,0,7.2-1.25Z" transform="translate(-41.51 -225.05)"/><path class="cls-1" d="M734.28,470.65l-2.72,9.8h-9l11.68-38.19h11.33l11.84,38.19h-9.29l-2.95-9.8Zm9.68-6.46-2.38-8.1c-.68-2.27-1.36-5.1-1.92-7.37h-.12c-.56,2.27-1.13,5.16-1.75,7.37l-2.27,8.1Z" transform="translate(-41.51 -225.05)"/><path class="cls-1" d="M794.84,465.83c-.17-4.59-.34-10.14-.34-15.69h-.17c-1.19,4.87-2.84,10.42-4.25,14.84l-4.65,14.85h-6.8l-4-14.73c-1.25-4.54-2.55-10-3.46-15H771c-.23,5.16-.4,11.05-.68,15.81l-.68,14.5h-8l2.44-38.19h11.5L779.37,455c1.25,4.36,2.38,9.35,3.23,13.83h.17c1.08-4.42,2.32-9.63,3.63-13.88l4.07-12.7h11.28l2.1,38.19H795.4Z" transform="translate(-41.51 -225.05)"/><path class="cls-1" d="M810.47,442.77a72.19,72.19,0,0,1,11.67-.79c5.33,0,9.12,1,11.67,3.06a11.16,11.16,0,0,1,4.08,8.84,12,12,0,0,1-3.51,9.06c-3,2.78-7.31,4.08-12.35,4.08-1.19,0-2.21-.11-3-.17v13.6h-8.56Zm8.56,17.4a18.51,18.51,0,0,0,2.88.17c4.59,0,7.43-2.32,7.43-6.18,0-3.57-2.38-5.67-6.86-5.67a18.94,18.94,0,0,0-3.45.29Z" transform="translate(-41.51 -225.05)"/><path class="cls-1" d="M852,442.26v22.1c0,6.52,2.49,9.8,6.91,9.8s7-3.11,7-9.8v-22.1h8.62v21.53c0,11.79-5.95,17.28-15.92,17.28-9.64,0-15.3-5.21-15.3-17.39V442.26Z" transform="translate(-41.51 -225.05)"/><path class="cls-1" d="M882.3,471.55a22.09,22.09,0,0,0,9.58,2.38c4,0,6.06-1.64,6.06-4.13s-1.81-3.74-6.4-5.38c-6.35-2.21-10.48-5.73-10.48-11.28,0-6.51,5.44-11.44,14.45-11.44a23.51,23.51,0,0,1,9.74,1.87l-1.93,7a18,18,0,0,0-8-1.82c-3.74,0-5.56,1.7-5.56,3.68,0,2.44,2.16,3.52,7.09,5.39,6.74,2.49,9.91,6,9.91,11.38,0,6.41-4.93,11.9-15.41,11.9a24.89,24.89,0,0,1-10.82-2.38Z" transform="translate(-41.51 -225.05)"/><path class="cls-1" d="M351,371.25a147.42,147.42,0,0,0-4.65-23.52l15.44-6.39-12.92-31.21-15.46,6.4A146.58,146.58,0,0,0,320,296.61l11.85-11.85L308,260.88l-11.85,11.84a147.11,147.11,0,0,0-19.91-13.34l6.4-15.45L251.41,231,245,246.44a147.42,147.42,0,0,0-23.52-4.65V225.05H187.71v16.74a147.2,147.2,0,0,0-23.52,4.65L157.79,231l-31.21,12.93,6.4,15.45a146.48,146.48,0,0,0-19.91,13.34l-11.85-11.84L77.33,284.76l11.85,11.85a147.21,147.21,0,0,0-13.34,19.92l-15.46-6.4L47.46,341.34l15.44,6.39a147.42,147.42,0,0,0-4.65,23.52H41.51V405h64.8c0-.2-.08-.39-.12-.59-.55-2.64-1-5.32-1.33-8,0-.17,0-.35-.06-.52-.14-1.18-.27-2.37-.37-3.57-.11-1.38-.2-2.78-.26-4.18,0-.7,0-1.39-.06-2.09a100.28,100.28,0,0,1,1.39-14.81c.31-1.82.66-3.64,1.07-5.43a100,100,0,0,1,12.94-31.2h0c1-1.56,2-3.1,3.07-4.6a101.29,101.29,0,0,1,23.89-23.89q2.26-1.59,4.6-3.08a99.76,99.76,0,0,1,31.21-12.93q2.68-.62,5.43-1.08a101.87,101.87,0,0,1,33.78,0q2.74.46,5.43,1.08a99.86,99.86,0,0,1,31.21,12.93q2.34,1.49,4.6,3.08A101.25,101.25,0,0,1,286.61,330c1.07,1.5,2.09,3,3.08,4.6h0A99.59,99.59,0,0,1,301,359.7c.51,2.05,1,4.12,1.35,6.23.32,1.76.6,3.53.82,5.32A101,101,0,0,1,304,384c0,1.39,0,2.78-.09,4.16s-.15,2.8-.26,4.19c-.1,1.19-.23,2.38-.37,3.57,0,.17,0,.34-.05.51q-.51,4.06-1.34,8c0,.19-.07.39-.11.59h65.9V371.25Z" transform="translate(-41.51 -225.05)"/><path class="cls-1" d="M115.56,404.09a3.15,3.15,0,0,0-3.31,1h6.62a3.16,3.16,0,0,0-2.39-1.09A3.1,3.1,0,0,0,115.56,404.09Z" transform="translate(-41.51 -225.05)"/><path class="cls-1" d="M291.51,405h4.77a3.15,3.15,0,0,0-4.77,0Z" transform="translate(-41.51 -225.05)"/><rect class="cls-1" x="160.67" y="205.67" width="3.74" height="70.89"/><rect class="cls-1" x="106.57" y="276.27" width="110.56" height="4.26"/><path class="cls-1" d="M119.66,407.13a3.18,3.18,0,0,1-3.18,3.17,3.1,3.1,0,0,1-.92-.13,3.16,3.16,0,0,1-2.18-2.38.28.28,0,0,1,0-.13,3.09,3.09,0,0,1,.74-2.62,3,3,0,0,1,1.47-1,3.1,3.1,0,0,1,.92-.14,3.16,3.16,0,0,1,2.39,1.09,2.43,2.43,0,0,1,.2.25A3.15,3.15,0,0,1,119.66,407.13Z" transform="translate(-41.51 -225.05)"/><rect class="cls-1" x="73.13" y="178.78" width="52.44" height="6.59"/><rect class="cls-1" x="78.78" y="191.49" width="46.8" height="6.59"/><rect class="cls-1" x="88.02" y="204.28" width="37.55" height="6.59"/><rect class="cls-1" x="105.31" y="217.15" width="19.01" height="6.59"/><path class="cls-1" d="M122.83,419.84a3.18,3.18,0,1,1-3.18-3.18A3.17,3.17,0,0,1,122.83,419.84Z" transform="translate(-41.51 -225.05)"/><path class="cls-1" d="M132.7,432.63a3.18,3.18,0,1,1-3.17-3.18A3.17,3.17,0,0,1,132.7,432.63Z" transform="translate(-41.51 -225.05)"/><circle class="cls-1" cx="105.31" cy="220.44" r="3.18"/><path class="cls-1" d="M117.82,407.13a3.19,3.19,0,0,1-2.26,3,3.21,3.21,0,0,1-3.73-1.56,2.24,2.24,0,0,1-.13-.27,3.3,3.3,0,0,1-.24-1.21,3.19,3.19,0,0,1,3.18-3.18,3.16,3.16,0,0,1,.92.14,3,3,0,0,1,1.46,1,2.73,2.73,0,0,1,.55.87A3.06,3.06,0,0,1,117.82,407.13Z" transform="translate(-41.51 -225.05)"/><path class="cls-1" d="M75.76,431.47a5.5,5.5,0,1,1-5.42-6.36,5.35,5.35,0,0,1,2.33.54l7.27-3.85a13,13,0,1,0,3.45,8.82,13.39,13.39,0,0,0-.36-3Z" transform="translate(-41.51 -225.05)"/><path class="cls-1" d="M116.18,410l-3.09-5.82L79.94,421.8A13,13,0,0,1,83,427.62Z" transform="translate(-41.51 -225.05)"/><path class="cls-1" d="M75.84,430.62a6,6,0,0,1-.08.85L83,427.62a13,13,0,0,0-3.09-5.82l-7.27,3.85A5.48,5.48,0,0,1,75.84,430.62Z" transform="translate(-41.51 -225.05)"/><rect class="cls-1" x="199.95" y="178.78" width="52.44" height="6.59"/><rect class="cls-1" x="199.95" y="191.49" width="46.8" height="6.59"/><rect class="cls-1" x="199.95" y="204.28" width="37.55" height="6.59"/><rect class="cls-1" x="201.2" y="217.15" width="19.01" height="6.59"/><path class="cls-1" d="M285.7,419.84a3.18,3.18,0,1,0,3.18-3.18A3.17,3.17,0,0,0,285.7,419.84Z" transform="translate(-41.51 -225.05)"/><path class="cls-1" d="M275.83,432.63a3.18,3.18,0,1,0,3.18-3.18A3.17,3.17,0,0,0,275.83,432.63Z" transform="translate(-41.51 -225.05)"/><circle class="cls-1" cx="220.21" cy="220.44" r="3.18"/><path class="cls-1" d="M297.07,407.13a3.12,3.12,0,0,1-.15,1,2.91,2.91,0,0,1-.22.51,3.17,3.17,0,0,1-6-1.48,3.2,3.2,0,0,1,.35-1.45,3.16,3.16,0,0,1,.44-.64,3.18,3.18,0,0,1,5.56,2.09Z" transform="translate(-41.51 -225.05)"/><rect class="cls-1" x="312.75" y="393.8" width="6.59" height="50.14" transform="translate(-243.57 276.86) rotate(-62.07)"/><path class="cls-1" d="M94.06,455.9,122.8,422l-5-4.26L89,451.64A13.09,13.09,0,0,1,94.06,455.9Z" transform="translate(-41.51 -225.05)"/><path class="cls-1" d="M88.74,462.17a5.43,5.43,0,0,1,.15,1.22,5.51,5.51,0,1,1-5.5-5.5c.11,0,.21,0,.31,0L89,451.64a13.05,13.05,0,1,0,5,4.26Z" transform="translate(-41.51 -225.05)"/><path class="cls-1" d="M88.74,462.17l5.32-6.27a13.09,13.09,0,0,0-5-4.26l-5.32,6.28A5.47,5.47,0,0,1,88.74,462.17Z" transform="translate(-41.51 -225.05)"/><path class="cls-1" d="M132.52,434l-6-2.75-20.84,45.4a13.16,13.16,0,0,1,6,2.74Z" transform="translate(-41.51 -225.05)"/><path class="cls-1" d="M111.69,479.39l-3.44,7.5a5.44,5.44,0,0,1,.68,2.6,5.51,5.51,0,1,1-6.66-5.38l3.42-7.46a12.92,12.92,0,0,0-2.26-.21,13.06,13.06,0,1,0,8.26,2.95Z" transform="translate(-41.51 -225.05)"/><path class="cls-1" d="M103.43,484a5.48,5.48,0,0,1,4.82,2.9l3.44-7.5a13.16,13.16,0,0,0-6-2.74l-3.42,7.46A5.5,5.5,0,0,1,103.43,484Z" transform="translate(-41.51 -225.05)"/><path class="cls-1" d="M129.53,496.38a13.05,13.05,0,1,0,13,13.05A13,13,0,0,0,129.53,496.38Zm0,18.55a5.51,5.51,0,1,1,5.5-5.5A5.51,5.51,0,0,1,129.53,514.93Z" transform="translate(-41.51 -225.05)"/><path class="cls-1" d="M279,496.8a13.05,13.05,0,1,0,13.05,13.05A13.05,13.05,0,0,0,279,496.8Zm0,17.66a5.51,5.51,0,1,1,5.5-5.51A5.51,5.51,0,0,1,279,514.46Z" transform="translate(-41.51 -225.05)"/><path class="cls-1" d="M282,431.25,276,434l20.56,44.8a13.13,13.13,0,0,1,5.91-2.93Z" transform="translate(-41.51 -225.05)"/><path class="cls-1" d="M305.11,475.61a13.4,13.4,0,0,0-2.63.26l3.38,7.36a5.51,5.51,0,1,1-5.78,3.21l-3.51-7.64a13,13,0,1,0,8.54-3.19Z" transform="translate(-41.51 -225.05)"/><path class="cls-1" d="M305.11,483.16a6.34,6.34,0,0,1,.75.07l-3.38-7.36a13.13,13.13,0,0,0-5.91,2.93l3.51,7.64A5.49,5.49,0,0,1,305.11,483.16Z" transform="translate(-41.51 -225.05)"/><path class="cls-1" d="M325.15,450.35a13,13,0,1,0,13.05,13A13,13,0,0,0,325.15,450.35Zm0,18.55a5.51,5.51,0,1,1,5.5-5.51A5.51,5.51,0,0,1,325.15,468.9Z" transform="translate(-41.51 -225.05)"/><path class="cls-1" d="M343.15,419.58a13,13,0,1,0,13.05,13.05A13,13,0,0,0,343.15,419.58Zm0,18.55a5.51,5.51,0,1,1,5.51-5.5A5.5,5.5,0,0,1,343.15,438.13Z" transform="translate(-41.51 -225.05)"/><path class="cls-1" d="M129.53,503.92a5.48,5.48,0,0,1,4.32,2.14L150,446.35l-6.37-1.72-16.14,59.69A5.53,5.53,0,0,1,129.53,503.92Z" transform="translate(-41.51 -225.05)"/><path class="cls-1" d="M279,503.45a5.38,5.38,0,0,1,1.89.35l-16-59.17-6.36,1.72,16,59.35A5.47,5.47,0,0,1,279,503.45Z" transform="translate(-41.51 -225.05)"/><path class="cls-1" d="M324.83,457.92l-34.06-40.21-5,4.26,34.05,40.2A5.49,5.49,0,0,1,324.83,457.92Z" transform="translate(-41.51 -225.05)"/><path class="cls-1" d="M211.25,313.31a7.2,7.2,0,1,1-14.4,0h-15V454.67H226.2V313.31Z" transform="translate(-41.51 -225.05)"/><path class="cls-2" d="M205.92,327.27v-1.41H201.1v8.86h4.82v-1.41h-3.29v-2.46h3.14v-1.38h-3.14v-2.2Z" transform="translate(-41.51 -225.05)"/><path class="cls-2" d="M206.05,345a2.17,2.17,0,0,0-.45-.69,2.83,2.83,0,0,0-.63-.5q-.34-.19-.72-.36h0l-.6-.25-.09,0a4.68,4.68,0,0,1-.63-.29,1.69,1.69,0,0,1-.45-.36.76.76,0,0,1-.17-.48,1,1,0,0,1,.08-.4.65.65,0,0,1,.26-.31.52.52,0,0,1,.18-.1,1.69,1.69,0,0,1,.27-.1,2.6,2.6,0,0,1,.67-.07l.48,0a4,4,0,0,1,.5.07l.42.1.06,0,.43.15v-1.52l-.43-.11-.49-.08-.51-.07-.5,0a4.13,4.13,0,0,0-1.4.21l-.07,0a2.49,2.49,0,0,0-.87.52,2.26,2.26,0,0,0-.54.82,2.94,2.94,0,0,0-.17,1,2.55,2.55,0,0,0,.17,1,2.21,2.21,0,0,0,.44.69,2.68,2.68,0,0,0,.63.49,6,6,0,0,0,.72.35l.71.3a1.57,1.57,0,0,1,.23.09,2.63,2.63,0,0,1,.41.21,1.66,1.66,0,0,1,.44.39.87.87,0,0,1,.17.54,1,1,0,0,1-.09.44.9.9,0,0,1-.28.34,1.42,1.42,0,0,1-.48.22,3.13,3.13,0,0,1-.73.08h-.35l-.25,0-.61-.11a6.29,6.29,0,0,1-.62-.17l-.59-.2v1.65a8.1,8.1,0,0,0,1.16.27l.3,0c.31,0,.61.05.92.05a5,5,0,0,0,1.32-.17,3,3,0,0,0,1-.52,1.84,1.84,0,0,0,.25-.23,2.37,2.37,0,0,0,.43-.65,3.08,3.08,0,0,0,.24-1.26A2.39,2.39,0,0,0,206.05,345Z" transform="translate(-41.51 -225.05)"/><path class="cls-2" d="M200.45,353.61V355h2.2v7.47h1.54V355h2.19v-1.39Z" transform="translate(-41.51 -225.05)"/><path class="cls-2" d="M206.53,371.27c0-.12,0-.23,0-.34h0a6.37,6.37,0,0,0-.2-1.07,3.27,3.27,0,0,0-.33-.81,2.7,2.7,0,0,0-.35-.53,2.8,2.8,0,0,0-1.15-.78,4.65,4.65,0,0,0-1.61-.25H200.5v8.85h2a4.7,4.7,0,0,0,1.82-.32,3.24,3.24,0,0,0,1.25-.92,3.77,3.77,0,0,0,.71-1.43,6.79,6.79,0,0,0,.23-1.87C206.54,371.62,206.54,371.44,206.53,371.27Zm-2.18,2.94a2,2,0,0,1-1.68.74H202v-6.07h.76a2.25,2.25,0,0,1,1,.21,1.57,1.57,0,0,1,.67.58h0a1.93,1.93,0,0,1,.24.5,3,3,0,0,1,.11.45,5.8,5.8,0,0,1,.09.64c0,.2,0,.41,0,.64A3.67,3.67,0,0,1,204.35,374.21Z" transform="translate(-41.51 -225.05)"/><path class="cls-2" d="M204.44,388.67a1.28,1.28,0,0,0-.24-.39.43.43,0,0,0-.12-.11,1.07,1.07,0,0,0-.22-.15,1.12,1.12,0,0,0-.44-.09,1,1,0,0,0-.43.09.86.86,0,0,0-.22.15.69.69,0,0,0-.13.11,1.28,1.28,0,0,0-.24.39,1.45,1.45,0,0,0-.08.47,1.51,1.51,0,0,0,.08.48,1.28,1.28,0,0,0,.24.39,1,1,0,0,0,.35.26.88.88,0,0,0,.43.1,1,1,0,0,0,.44-.1,1,1,0,0,0,.34-.26,1.23,1.23,0,0,0,.32-.87A1.22,1.22,0,0,0,204.44,388.67Zm0-4.66a1.28,1.28,0,0,0-.24-.39,1,1,0,0,0-.34-.26,1,1,0,0,0-.44-.1.88.88,0,0,0-.43.1,1,1,0,0,0-.35.26,1.28,1.28,0,0,0-.24.39,1.45,1.45,0,0,0-.08.47,1.51,1.51,0,0,0,.08.48,1.28,1.28,0,0,0,.24.39,1.14,1.14,0,0,0,.35.26,1,1,0,0,0,.43.09,1.12,1.12,0,0,0,.44-.09,1.1,1.1,0,0,0,.34-.26,1.23,1.23,0,0,0,.32-.87A1.22,1.22,0,0,0,204.44,384Z" transform="translate(-41.51 -225.05)"/><path class="cls-2" d="M202.82,402.56l1.16-1.22c.31-.32.58-.63.82-.92a5.59,5.59,0,0,0,.6-.86,4.25,4.25,0,0,0,.38-.89,3.54,3.54,0,0,0,.13-1,3,3,0,0,0-.19-1.13,2.15,2.15,0,0,0-.53-.81,2.24,2.24,0,0,0-.82-.49,3.32,3.32,0,0,0-2.47.15,4.32,4.32,0,0,0-1.17.86l.78,1.13a3.56,3.56,0,0,1,.77-.61,1.78,1.78,0,0,1,.88-.23,1.3,1.3,0,0,1,.49.1,1.06,1.06,0,0,1,.35.27,1.07,1.07,0,0,1,.22.39,1.51,1.51,0,0,1,.07.48,2.72,2.72,0,0,1-.06.58,2.16,2.16,0,0,1-.22.63,6.5,6.5,0,0,1-.5.76c-.21.28-.5.62-.85,1l-1.9,2.09v1.22h5.44v-1.53Z" transform="translate(-41.51 -225.05)"/><path class="cls-2" d="M206.32,411.43a4.43,4.43,0,0,0-.5-1.22c0-.07-.09-.13-.13-.19a2.52,2.52,0,0,0-1-.8,3.07,3.07,0,0,0-2.58,0,3.12,3.12,0,0,0-.56.39,2.51,2.51,0,0,0-.45.52,4.6,4.6,0,0,0-.63,1.45,8.18,8.18,0,0,0-.22,1.95,8,8,0,0,0,.21,1.95s0,.07,0,.11a4.18,4.18,0,0,0,.63,1.41,2.42,2.42,0,0,0,1,.81,2.86,2.86,0,0,0,1.21.26,2.93,2.93,0,0,0,1.36-.31,2.74,2.74,0,0,0,1-.91,4.19,4.19,0,0,0,.63-1.45,7.45,7.45,0,0,0,.16-.89,9,9,0,0,0,0-1.06A8.31,8.31,0,0,0,206.32,411.43ZM201.81,414a1.93,1.93,0,0,1,0-.24v-.26a6.54,6.54,0,0,1,.13-1.42,3.41,3.41,0,0,1,.34-1,1.78,1.78,0,0,1,.32-.43l.19-.16a1.14,1.14,0,0,1,.64-.19,1.15,1.15,0,0,1,.83.32,2,2,0,0,1,.46.68c0,.1.07.2.11.31l-.71.57-1.34,1.06Zm3.22-.71a2,2,0,0,1,0,.24,7.49,7.49,0,0,1-.12,1.43,3.65,3.65,0,0,1-.34,1,1.69,1.69,0,0,1-.52.59,1.15,1.15,0,0,1-.64.2,1.22,1.22,0,0,1-.83-.32,2.05,2.05,0,0,1-.55-1l3-2.39h0C205,413.17,205,413.25,205,413.31Z" transform="translate(-41.51 -225.05)"/><path class="cls-2" d="M206.49,426.24h0a7.74,7.74,0,0,0-.17-.93,4,4,0,0,0-.63-1.4,2.46,2.46,0,0,0-1-.81,3,3,0,0,0-2.58.06,2.63,2.63,0,0,0-1,.9,2.89,2.89,0,0,0-.33.6,5,5,0,0,0-.3.85,9,9,0,0,0,0,4,4.18,4.18,0,0,0,.63,1.41,2.88,2.88,0,0,0,.4.44,2.15,2.15,0,0,0,.57.37,2.86,2.86,0,0,0,1.21.26c.18,0,.34,0,.5,0l.31-.07a2.41,2.41,0,0,0,.55-.21,2.53,2.53,0,0,0,.6-.43,3.07,3.07,0,0,0,.41-.47,4.24,4.24,0,0,0,.63-1.46,8.21,8.21,0,0,0,.21-1.95A10,10,0,0,0,206.49,426.24Zm-1.46.95a1.85,1.85,0,0,1,0,.23,7.49,7.49,0,0,1-.12,1.43,3.65,3.65,0,0,1-.34,1,1.73,1.73,0,0,1-.52.6,1.14,1.14,0,0,1-.64.19h-.13a1.22,1.22,0,0,1-.7-.32,2,2,0,0,1-.55-1l.54-.43L205,427C205,427,205,427.11,205,427.19Zm-3.1-1.22a3.34,3.34,0,0,1,.34-1,1.72,1.72,0,0,1,.51-.6,1.23,1.23,0,0,1,.64-.19,1.2,1.2,0,0,1,.83.32,2.23,2.23,0,0,1,.57,1l-2.75,2.2-.26.2a1.93,1.93,0,0,1,0-.24v-.25c0-.11,0-.21,0-.32h0A5.89,5.89,0,0,1,201.93,426Z" transform="translate(-41.51 -225.05)"/><path class="cls-2" d="M204.47,444.24V436.8h-1.25l-1.46.85-.21.12-.88.51.39,1.06.1.29.39-.23,1.39-.85v5.69h-2v1.47h5.33v-1.47Z" transform="translate(-41.51 -225.05)"/><path class="cls-1" d="M238.52,320.51a4.71,4.71,0,0,1-4.42,4.7h-.29a4.71,4.71,0,0,1,0-9.42h.29A4.72,4.72,0,0,1,238.52,320.51Z" transform="translate(-41.51 -225.05)"/><rect class="cls-1" x="187.6" y="90.76" width="5" height="9.41"/><path class="cls-1" d="M238.52,333.22a4.71,4.71,0,0,1-4.42,4.7h-.29a4.71,4.71,0,0,1,0-9.42h.29a4.72,4.72,0,0,1,4.42,4.7Z" transform="translate(-41.51 -225.05)"/><rect class="cls-1" x="187.6" y="103.47" width="5" height="9.41"/><path class="cls-1" d="M238.52,357.54a4.71,4.71,0,0,1-4.42,4.7h-.49a4.71,4.71,0,0,1-4.06-2.72,4.54,4.54,0,0,1-.44-2,4.69,4.69,0,0,1,4.7-4.7h.29a4.59,4.59,0,0,1,2.89,1.23h0a4.72,4.72,0,0,1,1.53,3.46Z" transform="translate(-41.51 -225.05)"/><rect class="cls-1" x="187.6" y="127.79" width="5" height="9.41"/><path class="cls-1" d="M238.52,345.47a4.71,4.71,0,0,1-4.42,4.7h-.29a4.71,4.71,0,0,1,0-9.41h.29A4.71,4.71,0,0,1,238.52,345.47Z" transform="translate(-41.51 -225.05)"/><rect class="cls-1" x="187.6" y="115.72" width="5" height="9.41"/><path class="cls-1" d="M238.52,369.62a4.58,4.58,0,0,1-.29,1.63,4.69,4.69,0,0,1-4.13,3.07h-.29a4.68,4.68,0,0,1-4.16-2.52,4,4,0,0,1-.25-.56,4.58,4.58,0,0,1-.29-1.63,4.69,4.69,0,0,1,4.7-4.7h.29A4.7,4.7,0,0,1,238.52,369.62Z" transform="translate(-41.51 -225.05)"/><rect class="cls-1" x="187.6" y="139.87" width="5" height="9.41"/><path class="cls-1" d="M238.52,381.86a4.57,4.57,0,0,1-.4,1.89,4.68,4.68,0,0,1-4,2.81h-.29a4.71,4.71,0,0,1-4.38-6.42,4.7,4.7,0,0,1,4.38-3h.29a4.73,4.73,0,0,1,4.42,4.7Z" transform="translate(-41.51 -225.05)"/><rect class="cls-1" x="187.6" y="152.11" width="5" height="9.41"/><path class="cls-1" d="M238.52,394.42a4.69,4.69,0,0,1-.94,2.82,4.74,4.74,0,0,1-3.48,1.88h-.29a4.71,4.71,0,0,1,0-9.41h.29a4.7,4.7,0,0,1,4.42,4.7Z" transform="translate(-41.51 -225.05)"/><rect class="cls-1" x="187.6" y="164.66" width="5" height="9.41"/><path class="cls-1" d="M238.52,407.13a4.71,4.71,0,1,1-4.71-4.71A4.7,4.7,0,0,1,238.52,407.13Z" transform="translate(-41.51 -225.05)"/><rect class="cls-1" x="187.6" y="177.37" width="5" height="9.41"/><path class="cls-1" d="M238.52,419.84a4.71,4.71,0,1,1-4.71-4.71A4.7,4.7,0,0,1,238.52,419.84Z" transform="translate(-41.51 -225.05)"/><rect class="cls-1" x="187.6" y="190.08" width="5" height="9.41"/><path class="cls-1" d="M238.52,432.63a4.71,4.71,0,1,1-4.71-4.71A4.71,4.71,0,0,1,238.52,432.63Z" transform="translate(-41.51 -225.05)"/><rect class="cls-1" x="187.6" y="202.87" width="5" height="9.42"/><path class="cls-1" d="M238.52,445.49a4.71,4.71,0,1,1-4.71-4.71A4.71,4.71,0,0,1,238.52,445.49Z" transform="translate(-41.51 -225.05)"/><rect class="cls-1" x="187.6" y="215.73" width="5" height="9.41"/><path class="cls-1" d="M179.15,320.51a4.71,4.71,0,0,1-4.71,4.71h-.29a4.71,4.71,0,0,1,0-9.4h.29A4.71,4.71,0,0,1,179.15,320.51Z" transform="translate(-41.51 -225.05)"/><rect class="cls-1" x="132.64" y="90.76" width="5" height="9.41"/><path class="cls-1" d="M179.15,333.22A4.72,4.72,0,0,1,177.3,337a4.66,4.66,0,0,1-2.86,1h-.29a4.72,4.72,0,0,1-4.42-4.7,4.66,4.66,0,0,1,1-2.86,4.72,4.72,0,0,1,3.45-1.84h.29A4.71,4.71,0,0,1,179.15,333.22Z" transform="translate(-41.51 -225.05)"/><rect class="cls-1" x="132.64" y="103.47" width="5" height="9.41"/><path class="cls-1" d="M179.15,357.54a4.84,4.84,0,0,1-.3,1.66,4.71,4.71,0,0,1-3.31,2.92,4.48,4.48,0,0,1-1.1.13h-.29a4.72,4.72,0,0,1-4.42-4.7,4.52,4.52,0,0,1,.43-1.94,4.67,4.67,0,0,1,4-2.75h.29A4.7,4.7,0,0,1,179.15,357.54Z" transform="translate(-41.51 -225.05)"/><rect class="cls-1" x="132.64" y="127.79" width="5" height="9.41"/><path class="cls-1" d="M179.15,345.47a4.71,4.71,0,0,1-4.71,4.71h-.29a4.7,4.7,0,0,1,0-9.39h.29A4.71,4.71,0,0,1,179.15,345.47Z" transform="translate(-41.51 -225.05)"/><rect class="cls-1" x="132.64" y="115.72" width="5" height="9.41"/><path class="cls-1" d="M179.15,369.62a5.06,5.06,0,0,1-.1,1,4.6,4.6,0,0,1-.2.66,4.69,4.69,0,0,1-4.41,3.08h-.29a4.71,4.71,0,0,1-4.13-3.07,4.81,4.81,0,0,1-.29-1.63,4.71,4.71,0,0,1,4.42-4.69h.29a4.68,4.68,0,0,1,2.57.76h0A4.69,4.69,0,0,1,179.15,369.62Z" transform="translate(-41.51 -225.05)"/><rect class="cls-1" x="132.64" y="139.87" width="5" height="9.41"/><path class="cls-1" d="M179.15,381.86a4.73,4.73,0,0,1-4.71,4.71h-.29a4.71,4.71,0,0,1,0-9.4h.29a4.7,4.7,0,0,1,4.5,3.33A4.41,4.41,0,0,1,179.15,381.86Z" transform="translate(-41.51 -225.05)"/><rect class="cls-1" x="132.64" y="152.11" width="5" height="9.41"/><path class="cls-1" d="M179.15,394.42a4.52,4.52,0,0,1-.21,1.38,4.7,4.7,0,0,1-4.5,3.32h-.29a4.77,4.77,0,0,1-3-1.37,4.71,4.71,0,0,1,3-8h.29a4.71,4.71,0,0,1,4.71,4.71Z" transform="translate(-41.51 -225.05)"/><rect class="cls-1" x="132.64" y="164.66" width="5" height="9.41"/><path class="cls-1" d="M169.73,407.13a4.71,4.71,0,1,0,4.71-4.71A4.7,4.7,0,0,0,169.73,407.13Z" transform="translate(-41.51 -225.05)"/><rect class="cls-1" x="132.64" y="177.37" width="5" height="9.41"/><path class="cls-1" d="M169.73,419.84a4.71,4.71,0,1,0,4.71-4.71A4.7,4.7,0,0,0,169.73,419.84Z" transform="translate(-41.51 -225.05)"/><rect class="cls-1" x="132.64" y="190.08" width="5" height="9.41"/><path class="cls-1" d="M169.73,432.63a4.71,4.71,0,1,0,4.71-4.71A4.71,4.71,0,0,0,169.73,432.63Z" transform="translate(-41.51 -225.05)"/><rect class="cls-1" x="132.64" y="202.87" width="5" height="9.42"/><path class="cls-1" d="M169.73,445.49a4.71,4.71,0,1,0,4.71-4.71A4.71,4.71,0,0,0,169.73,445.49Z" transform="translate(-41.51 -225.05)"/><rect class="cls-1" x="132.64" y="215.73" width="5" height="9.41"/><path class="cls-1" d="M585.28,412.52,573,374.34h9.46l4.65,16.14c1.3,4.54,2.49,8.9,3.4,13.66h.17c1-4.59,2.15-9.12,3.46-13.48l4.87-16.32h9.18l-12.86,38.18Z" transform="translate(-41.51 -225.05)"/></g></svg>